<svg width="190" height="18" viewBox="0 0 190 18" xmlns="http://www.w3.org/2000/svg"><title>Bayer-Tagline</title><g fill="none" fill-rule="evenodd"><path d="M4.423 3.998l.97.242L2.71 15.002l-.97-.242L4.422 3.998zm3.414 0l.97.242-2.683 10.762-.97-.242L7.837 3.998zm3.414 0l.97.242L9.54 15.002l-.97-.242L11.25 3.998zm3.415 0l.97.242-2.683 10.762-.97-.242 2.683-10.762zm3.415 0l.97.242-2.683 10.762-.97-.242L18.08 3.998zm3.414 0l.97.242-2.683 10.762-.97-.242 2.684-10.762z" fill="#624963"/><path d="M34.085 7.41h1.02c.03-.62-.05-1.142-.24-1.568-.19-.425-.457-.77-.803-1.034-.345-.266-.757-.455-1.237-.57-.48-.116-.99-.173-1.53-.173-.48 0-.947.06-1.402.18-.456.12-.86.302-1.215.547-.356.246-.64.56-.855.946-.216.385-.323.847-.323 1.387 0 .69.195 1.232.585 1.628.39.395.9.682 1.53.862l1.05.315c.3.09.605.18.915.27.31.09.595.21.855.36s.472.342.637.578c.166.235.248.542.248.922 0 .4-.092.745-.277 1.035-.186.29-.425.527-.72.713-.296.185-.623.322-.983.412-.36.09-.715.135-1.065.135-.48 0-.917-.052-1.312-.157-.396-.106-.73-.273-1.005-.503-.276-.23-.48-.527-.615-.892-.136-.366-.188-.808-.158-1.328h-1.02c-.03.65.05 1.21.24 1.68s.467.857.833 1.163c.365.305.8.53 1.305.675.505.145 1.057.217 1.657.217.87 0 1.575-.12 2.115-.36.54-.24.96-.532 1.26-.877.3-.346.502-.705.607-1.08.106-.376.158-.698.158-.968 0-.45-.08-.825-.24-1.125-.16-.3-.375-.55-.645-.75-.27-.2-.577-.365-.922-.495-.346-.13-.703-.25-1.073-.36l-1.14-.345c-.22-.07-.44-.147-.66-.232-.22-.086-.412-.195-.578-.33-.165-.136-.3-.3-.405-.496-.105-.195-.157-.432-.157-.712 0-.38.08-.705.24-.975.16-.27.37-.492.63-.667.26-.176.552-.303.877-.383.326-.08.653-.12.983-.12.46 0 .865.04 1.215.12.35.08.645.217.885.413.24.195.422.45.548.764.125.316.187.708.187 1.178zm7.96 2.265h.944c.01-.45-.056-.84-.196-1.17-.14-.33-.34-.605-.6-.825-.26-.22-.57-.382-.93-.487-.36-.106-.75-.158-1.17-.158-.66 0-1.25.147-1.77.443-.52.295-.96.677-1.32 1.147-.36.47-.635 1.005-.825 1.605-.19.6-.286 1.2-.286 1.8 0 .96.258 1.73.773 2.31.515.58 1.252.87 2.212.87.94 0 1.704-.227 2.294-.683.59-.455 1.03-1.132 1.32-2.032h-.945c-.2.57-.518 1.035-.953 1.395-.435.36-.968.54-1.598.54-.37 0-.69-.06-.96-.18s-.496-.287-.676-.502c-.18-.216-.312-.47-.397-.765-.085-.296-.128-.613-.128-.953 0-.5.067-1 .202-1.5s.342-.95.622-1.35c.28-.4.628-.725 1.043-.975.415-.25.907-.375 1.477-.375.28 0 .538.042.773.127.235.086.435.205.6.36.165.156.292.348.382.578.09.23.124.49.104.78zm3.804-5.385l-.33 1.515h.944l.33-1.515h-.945zm-.646 2.97L43.554 15h.93l1.665-7.74h-.946zm7.884 3.33c0-.11.003-.212.008-.308.005-.095.007-.192.007-.292 0-.66-.187-1.185-.562-1.575-.374-.39-.892-.585-1.552-.585-.39 0-.747.077-1.072.232-.325.156-.615.36-.87.616-.255.255-.468.547-.638.877-.17.33-.295.675-.375 1.035h5.055zm-5.175.795c-.03.18-.045.38-.045.6 0 .35.045.675.135.975.09.3.228.557.413.772.185.216.42.385.705.51.286.126.618.188.998.188.63 0 1.165-.177 1.605-.532.44-.356.75-.818.93-1.388h.945c-.26.88-.68 1.55-1.26 2.01-.58.46-1.335.69-2.265.69-1.03 0-1.812-.29-2.347-.87-.535-.58-.803-1.38-.803-2.4 0-.62.093-1.222.278-1.807.186-.586.458-1.108.818-1.568.36-.46.8-.83 1.32-1.11.52-.28 1.11-.42 1.77-.42.47 0 .885.072 1.245.218.36.145.668.35.923.615s.447.582.577.952c.13.37.195.78.195 1.23 0 .22-.005.44-.015.66-.01.22-.03.445-.06.675h-6.06zm8.32-4.125L54.583 15h.93l.855-3.975c.1-.49.25-.932.45-1.328.2-.395.434-.73.705-1.004.27-.276.564-.488.884-.638.32-.15.65-.225.99-.225.21 0 .413.025.608.075.195.05.367.13.517.24.15.11.27.252.36.428.09.175.136.392.136.652 0 .13-.01.262-.03.397-.02.136-.045.263-.075.383L59.833 15h.945l1.065-4.965c.08-.4.12-.705.12-.915 0-.37-.058-.687-.173-.952-.115-.266-.277-.48-.487-.645-.21-.166-.458-.288-.743-.368-.285-.08-.597-.12-.938-.12-.58 0-1.112.157-1.597.472-.485.316-.872.703-1.163 1.163h-.03l.27-1.41h-.87zm13.15 2.415h.944c.01-.45-.055-.84-.195-1.17-.14-.33-.34-.605-.6-.825-.26-.22-.57-.382-.93-.487-.36-.106-.75-.158-1.17-.158-.66 0-1.25.147-1.77.443-.52.295-.96.677-1.32 1.147-.36.47-.635 1.005-.825 1.605-.19.6-.285 1.2-.285 1.8 0 .96.257 1.73.772 2.31.515.58 1.253.87 2.213.87.94 0 1.705-.227 2.295-.683.59-.455 1.03-1.132 1.32-2.032h-.945c-.2.57-.518 1.035-.953 1.395-.435.36-.967.54-1.597.54-.37 0-.69-.06-.96-.18s-.495-.287-.675-.502c-.18-.216-.313-.47-.398-.765-.085-.296-.127-.613-.127-.953 0-.5.067-1 .202-1.5.134-.5.342-.95.622-1.35.28-.4.627-.725 1.042-.975.415-.25.908-.375 1.478-.375.28 0 .537.042.772.127.235.086.435.205.6.36.165.156.293.348.383.578.09.23.125.49.105.78zm8.033.915c0-.11.003-.212.008-.308.005-.095.007-.192.007-.292 0-.66-.186-1.185-.56-1.575-.376-.39-.894-.585-1.554-.585-.39 0-.747.077-1.072.232-.325.156-.615.36-.87.616-.255.255-.468.547-.638.877-.17.33-.295.675-.375 1.035h5.056zm-5.175.795c-.03.18-.044.38-.044.6 0 .35.045.675.135.975.09.3.23.557.414.772.185.216.42.385.705.51.284.126.616.188.996.188.63 0 1.165-.177 1.605-.532.44-.356.75-.818.93-1.388h.946c-.26.88-.68 1.55-1.26 2.01-.58.46-1.335.69-2.265.69-1.03 0-1.81-.29-2.346-.87-.535-.58-.803-1.38-.803-2.4 0-.62.094-1.222.28-1.807.184-.586.456-1.108.816-1.568.36-.46.8-.83 1.32-1.11.52-.28 1.11-.42 1.77-.42.47 0 .885.072 1.245.218.36.145.67.35.924.615.255.265.447.582.577.952.13.37.196.78.196 1.23 0 .22-.005.44-.015.66-.01.22-.03.445-.06.675h-6.06zm15.485-3.33H86.21L84.68 15h-.945l1.53-6.945h-1.35l.18-.795h1.335l.24-1.125c.12-.57.335-1.02.645-1.35.31-.33.785-.495 1.425-.495.17 0 .335.005.495.015.16.01.32.04.48.09l-.165.78-.293-.06c-.095-.02-.192-.03-.292-.03-.44 0-.755.087-.945.262-.19.176-.33.453-.42.833l-.225 1.08h1.53l-.18.795zm3.34 6.375c.52 0 .977-.132 1.372-.397.395-.266.725-.603.99-1.013.265-.41.465-.86.6-1.35.135-.49.202-.96.202-1.41 0-.72-.19-1.305-.57-1.755-.38-.45-.95-.675-1.71-.675-.52 0-.98.127-1.38.382-.4.256-.736.58-1.006.975-.27.396-.475.835-.615 1.32-.14.486-.21.953-.21 1.403 0 .75.19 1.357.57 1.822.38.466.964.698 1.754.698zm1.05-7.395c.45 0 .862.067 1.237.202.375.136.697.333.967.593.27.26.48.577.63.952.15.376.224.803.224 1.283 0 .65-.09 1.285-.27 1.905-.18.62-.447 1.17-.802 1.65-.355.48-.8.865-1.335 1.155-.535.29-1.163.435-1.883.435-1 0-1.765-.29-2.295-.87-.53-.58-.796-1.36-.796-2.34 0-.63.095-1.245.285-1.845.19-.6.47-1.13.84-1.59.37-.46.822-.83 1.357-1.11.535-.28 1.147-.42 1.837-.42zm5.544.225L96.01 15h.93l.87-4.05c.08-.36.196-.71.35-1.05.156-.34.354-.642.594-.908.24-.265.522-.477.847-.637.326-.16.7-.245 1.12-.255.09 0 .18.002.27.007.09.006.18.008.27.008l.21-.945c-.04-.01-.08-.015-.12-.015h-.39c-.69 0-1.256.175-1.696.525-.44.35-.81.805-1.11 1.365h-.03l.39-1.785h-.855zm8.793 2.31c.06-.44.187-.82.382-1.14.195-.32.437-.582.728-.787.29-.206.62-.358.99-.458.37-.1.76-.15 1.17-.15.26 0 .547.025.862.075.315.05.607.14.878.27.27.13.494.305.675.525.18.22.27.505.27.855 0 .19-.018.4-.053.63-.035.23-.078.462-.127.698-.05.235-.103.464-.158.69-.055.225-.102.422-.142.592-.09.43-.168.787-.233 1.073-.065.285-.117.522-.157.712-.04.19-.07.345-.09.465-.02.12-.03.24-.03.36 0 .14.054.227.164.263.11.035.22.052.33.052.07 0 .133-.002.188-.007.055-.005.118-.013.188-.023l-.135.735c-.25.05-.51.075-.78.075-.53 0-.806-.275-.826-.825 0-.07.003-.14.008-.21.005-.07.012-.14.022-.21l-.03-.03c-.27.45-.65.797-1.14 1.043-.49.245-1.004.367-1.544.367-.36 0-.69-.04-.99-.12-.3-.08-.558-.205-.773-.375-.215-.17-.385-.39-.51-.66s-.188-.595-.188-.975c0-.41.073-.755.218-1.035.145-.28.342-.51.593-.69.25-.18.534-.322.855-.427.32-.106.654-.188 1.005-.248.51-.08.972-.118 1.387-.112.415.005.772-.033 1.073-.113.31-.08.542-.225.697-.435.155-.21.233-.57.233-1.08 0-.23-.053-.417-.158-.562-.105-.146-.235-.258-.39-.338-.155-.08-.33-.135-.525-.165s-.382-.045-.563-.045c-.3 0-.584.03-.855.09-.27.06-.514.157-.734.293-.22.135-.403.314-.548.54-.145.225-.242.497-.293.817h-.945zm4.68 1.29l-.03-.03c-.08.09-.193.162-.338.217-.145.056-.297.098-.457.128-.16.03-.323.05-.488.06-.165.01-.307.02-.427.03-.29.02-.613.047-.968.082-.355.036-.687.11-.998.226-.31.115-.57.284-.78.51-.21.225-.315.542-.315.952 0 .25.048.462.143.637.095.176.222.32.383.435.16.116.344.198.554.248.21.05.425.075.645.075.76 0 1.375-.205 1.846-.615.47-.41.78-.96.93-1.65l.3-1.305zm8.883-6.57h2.13l-.795 3.78h.03c.33-.36.67-.622 1.014-.788.345-.165.772-.247 1.282-.247.5 0 .925.087 1.275.262.35.176.64.413.864.713.225.3.39.65.495 1.05.104.4.156.825.156 1.275 0 .6-.085 1.192-.255 1.777-.17.586-.424 1.105-.764 1.56-.34.456-.76.823-1.26 1.103s-1.08.42-1.74.42c-.54 0-1.032-.1-1.477-.3-.446-.2-.764-.57-.954-1.11h-.03L119.73 15h-1.95l2.236-10.71zm2.805 4.35c-.42 0-.774.11-1.064.33-.29.22-.527.495-.712.825-.185.33-.32.69-.405 1.08-.086.39-.13.755-.13 1.095 0 .48.136.872.406 1.177.27.306.65.458 1.14.458.41 0 .758-.105 1.043-.315.284-.21.52-.477.704-.802.185-.326.32-.678.405-1.058.084-.38.126-.735.126-1.065 0-.49-.115-.9-.345-1.23-.23-.33-.62-.495-1.17-.495zm10.508 1.65c0-.2-.017-.397-.052-.593-.035-.195-.103-.372-.203-.532-.1-.16-.245-.287-.435-.383-.19-.095-.44-.142-.75-.142-.3 0-.565.045-.795.135-.23.09-.43.21-.6.36-.17.15-.312.325-.427.525-.115.2-.213.41-.293.63h3.555zm-3.78 1.35c-.01.05-.015.095-.015.135v.315c0 .45.14.815.42 1.095.28.28.71.42 1.29.42.21 0 .398-.032.563-.098.165-.065.31-.147.435-.247.126-.1.236-.215.33-.345.096-.13.183-.255.263-.375h2.13c-.17.44-.37.825-.6 1.155-.23.33-.505.607-.825.832-.32.226-.692.393-1.117.503-.424.11-.917.165-1.477.165-.52 0-.992-.07-1.417-.21-.425-.14-.788-.352-1.088-.638-.3-.285-.532-.637-.697-1.057-.164-.42-.247-.91-.247-1.47 0-.62.1-1.217.3-1.793.2-.575.483-1.084.848-1.53.366-.445.813-.8 1.343-1.065.53-.265 1.125-.397 1.785-.397.54 0 1.033.07 1.478.21.445.14.825.352 1.14.637.315.286.56.64.735 1.065.176.426.263.918.263 1.478 0 .38-.04.785-.12 1.215h-5.715zm10.807-4.395l.48-2.355h-2.13l-.48 2.355h-1.365l-.33 1.425h1.395l-.87 4.155c-.03.14-.055.272-.075.397-.02.126-.03.238-.03.338-.01.32.043.58.158.78.115.2.27.357.465.472.195.116.415.195.66.24.245.046.492.068.742.068.23 0 .455-.007.675-.023.22-.015.44-.032.66-.052l.36-1.635c-.25.03-.505.045-.765.045-.08 0-.162-.002-.247-.008-.085-.005-.163-.027-.233-.067-.07-.04-.127-.097-.172-.173-.045-.075-.068-.182-.068-.322 0-.03.005-.077.015-.143.01-.065.025-.137.045-.217l.795-3.855h1.515l.33-1.425h-1.53zm5.782 0l.48-2.355h-2.13l-.48 2.355h-1.365l-.33 1.425h1.395l-.87 4.155c-.03.14-.055.272-.075.397-.02.126-.03.238-.03.338-.01.32.043.58.158.78.115.2.27.357.465.472.195.116.415.195.66.24.245.046.492.068.742.068.23 0 .455-.007.675-.023.22-.015.44-.032.66-.052l.36-1.635c-.25.03-.505.045-.765.045-.08 0-.162-.002-.247-.008-.085-.005-.163-.027-.233-.067-.07-.04-.127-.097-.172-.173-.045-.075-.068-.182-.068-.322 0-.03.005-.077.015-.143.01-.065.025-.137.045-.217l.795-3.855h1.515l.33-1.425h-1.53zm7.597 3.045c0-.2-.018-.397-.053-.593-.034-.195-.1-.372-.2-.532-.1-.16-.246-.287-.436-.383-.19-.095-.44-.142-.75-.142-.3 0-.565.045-.795.135-.23.09-.43.21-.6.36-.17.15-.314.325-.43.525-.114.2-.21.41-.29.63h3.554zm-3.78 1.35c-.01.05-.015.095-.015.135v.315c0 .45.14.815.42 1.095.28.28.71.42 1.29.42.21 0 .396-.032.56-.098.166-.065.31-.147.436-.247.125-.1.235-.215.33-.345.095-.13.183-.255.263-.375h2.13c-.17.44-.37.825-.6 1.155-.23.33-.506.607-.826.832-.32.226-.693.393-1.118.503-.425.11-.917.165-1.477.165-.52 0-.994-.07-1.42-.21-.424-.14-.786-.352-1.086-.638-.3-.285-.533-.637-.698-1.057-.165-.42-.247-.91-.247-1.47 0-.62.1-1.217.3-1.793.2-.575.48-1.084.846-1.53.365-.445.813-.8 1.343-1.065.53-.265 1.124-.397 1.784-.397.54 0 1.032.07 1.477.21.446.14.826.352 1.14.637.316.286.56.64.736 1.065.175.426.263.918.263 1.478 0 .38-.04.785-.12 1.215h-5.716zm8.077-4.395L156.427 15h2.115l.72-3.435c.07-.33.163-.647.278-.952.115-.306.27-.578.465-.818s.435-.43.72-.57c.285-.14.633-.21 1.043-.21.15 0 .3.015.45.045l.45.09.435-2.07c-.22-.03-.44-.045-.66-.045-.57 0-1.097.137-1.582.413-.485.275-.847.682-1.087 1.222l-.03-.03.316-1.395h-2.025zm11.13-2.955h2.13L169.01 15h-2.115l2.265-10.71zm5.872 1.755l.39-1.755h-2.145l-.39 1.755h2.145zm-2.385 1.2h2.145L173.142 15h-2.13l1.635-7.755zm4.237 1.425h-1.26l.3-1.425h1.275c.1-.5.21-.937.33-1.313.12-.375.284-.692.494-.952.21-.26.487-.455.832-.585.345-.13.798-.195 1.358-.195.23 0 .462.01.697.03.236.02.47.05.7.09l-.33 1.53-.346-.03c-.12-.01-.235-.015-.345-.015-.27 0-.476.032-.616.097-.14.066-.248.16-.323.285-.074.126-.13.275-.17.45-.04.176-.09.378-.15.608h1.514l-.3 1.425h-1.53L177.68 15h-2.13l1.334-6.33zm9.907 1.62c0-.2-.017-.397-.052-.593-.035-.195-.102-.372-.202-.532-.1-.16-.245-.287-.435-.383-.19-.095-.44-.142-.75-.142-.3 0-.564.045-.794.135-.23.09-.43.21-.6.36-.17.15-.313.325-.428.525-.115.2-.212.41-.292.63h3.555zm-3.78 1.35c-.01.05-.014.095-.014.135v.315c0 .45.14.815.42 1.095.28.28.71.42 1.29.42.21 0 .397-.032.562-.098.165-.065.31-.147.435-.247s.235-.215.33-.345c.095-.13.183-.255.263-.375h2.13c-.17.44-.37.825-.6 1.155-.23.33-.505.607-.825.832-.32.226-.692.393-1.117.503-.425.11-.917.165-1.477.165-.52 0-.993-.07-1.418-.21-.425-.14-.787-.352-1.087-.638-.3-.285-.532-.637-.697-1.057-.165-.42-.247-.91-.247-1.47 0-.62.1-1.217.3-1.793.2-.575.482-1.084.847-1.53.365-.445.813-.8 1.343-1.065.53-.265 1.125-.397 1.785-.397.54 0 1.033.07 1.478.21.445.14.825.352 1.14.637.315.286.56.64.735 1.065.175.426.263.918.263 1.478 0 .38-.04.785-.12 1.215h-5.715z" fill="#10384F"/></g></svg>